PathFileType	4	(X/Y/Z)	/Users/niels/Desktop/University/Third Semester/Perception and Action/Exam/Gymnastics Motion Tracking/Code for Gym Tracking/Analyzed Data/Webcam_Backflip/id3_4_trajectory_Sports2D/id3_4_trajectory_Sports2D_px_person00.trc
DataRate	CameraRate	NumFrames	NumMarkers	Units	OrigDataRate	OrigDataStartFrame	OrigNumFrames
29.810126582278482	29.810126582278482	12	22	m	29.810126582278482	79	158
Frame#	Time	Hip			RHip			RKnee			RAnkle			RBigToe			RSmallToe			RHeel			LHip			LKnee			LAnkle			LBigToe			LSmallToe			LHeel			Neck			Head			Nose			RShoulder			RElbow			RWrist			LShoulder			LElbow			LWrist		
		X1	Y1	Z1	X2	Y2	Z2	X3	Y3	Z3	X4	Y4	Z4	X5	Y5	Z5	X6	Y6	Z6	X7	Y7	Z7	X8	Y8	Z8	X9	Y9	Z9	X10	Y10	Z10	X11	Y11	Z11	X12	Y12	Z12	X13	Y13	Z13	X14	Y14	Z14	X15	Y15	Z15	X16	Y16	Z16	X17	Y17	Z17	X18	Y18	Z18	X19	Y19	Z19	X20	Y20	Z20	X21	Y21	Z21	X22	Y22	Z22
79	2.6501061571125266	1.0329665470066733	-0.23809361630567796	0.0	1.0304712660465196	-0.23996459612594184	0.0	0.93249026425429	-0.255246504926596	0.0	0.9371570612981804	-0.18572304409500284	0.0	0.8973042065656078	-0.19296811669241332	0.0	0.9056721381853157	-0.18773371880860432	0.0	0.9376213107121497	-0.17256221354047546	0.0	1.0332956184862812	-0.2391891281578575	0.0	0.93633982679492	-0.25282405014459575	0.0	0.9387788091745435	-0.1811266144824271	0.0	0.8994363234987657	-0.1775022774103006	0.0	0.9013931013796573	-0.1830192276326742	0.0	0.9439066346651505	-0.16507533544202108	0.0	1.017874528030029	-0.35965541292559616	0.0	1.0155018853273874	-0.4206479477042771	0.0	1.003125042200107	-0.4006428704387715	0.0	0.9989649871342586	-0.3367457753479198	0.0	0.9778177337390868	-0.2834268699680534	0.0	0.9293488367771815	-0.2859520912260773	0.0	1.0387818709031844	-0.34769438105884337	0.0	1.003428146952511	-0.29355969710268925	0.0	0.9979104555168707	-0.3153647987226639	0.0
80	2.683651804670913	1.0247500744924336	-0.2259713421050302	0.0	1.0203117197570895	-0.22939916919517425	0.0	0.9254602755703698	-0.2787449169952129	0.0	0.8993327880162221	-0.20546832449679953	0.0	0.8571038448405753	-0.22763045096584217	0.0	0.8618690470698127	-0.21943473572690936	0.0	0.896263408675685	-0.18842094956309036	0.0	1.0275967299019642	-0.228101361367323	0.0	0.9336735359248718	-0.27414776612910396	0.0	0.9049792115312342	-0.2029802813596256	0.0	0.8580875031190472	-0.21387396150979204	0.0	0.8625992201444552	-0.2191249888880466	0.0	0.9078892164258975	-0.18370641557035436	0.0	1.0465803426301044	-0.35912179094366053	0.0	1.0608647627835441	-0.4246747207613502	0.0	1.039153793224825	-0.408466857933014	0.0	1.0214884117946954	-0.3400731249593003	0.0	0.9778412341673056	-0.29595337822355583	0.0	0.9241778781749476	-0.3012096038940956	0.0	1.0664593088449157	-0.3432907573879611	0.0	1.018921336219757	-0.2978936418345947	0.0	1.0023025063138244	-0.3279577798511545	0.0
81	2.7171974522292994	1.0147337186391485	-0.22253930937752828	0.0	1.0085015918132474	-0.22720718520910962	0.0	0.923316210737789	-0.3045844175733741	0.0	0.8684787156545845	-0.2389216059290924	0.0	0.8295534474182723	-0.27409172109480434	0.0	0.8301147112461142	-0.26366581274349277	0.0	0.8617943248995094	-0.21965182445311446	0.0	1.020081148378345	-0.2254514240854134	0.0	0.9355782331164063	-0.2986056977229946	0.0	0.8789192351099409	-0.2396971687103276	0.0	0.8302996856909134	-0.2650898179233512	0.0	0.8375825660176875	-0.26845105936715574	0.0	0.8800404148317537	-0.21949595737882815	0.0	1.072303008222413	-0.3539468775117577	0.0	1.1033613111533211	-0.4196654539305364	0.0	1.0732905739526657	-0.4076937332474192	0.0	1.042095070902882	-0.3400428179161037	0.0	0.9796644354750371	-0.31123287828629764	0.0	0.9269146913682776	-0.32441664233411754	0.0	1.0888523453130692	-0.3349435764925255	0.0	1.0352010132314748	-0.3030966651433467	0.0	1.0083247709691974	-0.34119465919836256	0.0
82	2.7507430997876856	1.003928994076091	-0.22905065500123944	0.0	0.9963144680155109	-0.23422760703489326	0.0	0.9251033336715333	-0.3322638452986812	0.0	0.8472106266730094	-0.2854530229327721	0.0	0.8167722329165273	-0.3314466038056865	0.0	0.8132369299102833	-0.3198459968110426	0.0	0.8369017112689787	-0.2663739104422606	0.0	1.0112510262826124	-0.23232107685822273	0.0	0.9394614190890881	-0.32585227415986445	0.0	0.8622061380442597	-0.2900316145001149	0.0	0.8185244065128011	-0.32890831412507293	0.0	0.8281538204531155	-0.3282237599242782	0.0	0.8614518953644721	-0.2716590624595495	0.0	1.093183175080723	-0.3455446605761021	0.0	1.1404313435820888	-0.40642398982728034	0.0	1.103685076240359	-0.3996319177867626	0.0	1.0594998062877237	-0.33757590598574855	0.0	0.9850186670349006	-0.32923060531047826	0.0	0.9384982575390004	-0.3556871539934812	0.0	1.1045150425471044	-0.32455615963838785	0.0	1.0505553449800153	-0.310654160281377	0.0	1.017439491672008	-0.35576468737459394	0.0
83	2.7842887473460722	0.9934722882645614	-0.24521752181269693	0.0	0.9850819917193695	-0.25010674162459995	0.0	0.9294936372150406	-0.3614567788659146	0.0	0.8373334393782087	-0.34262566561843605	0.0	0.8189125955120863	-0.39672353173133135	0.0	0.8120490309098582	-0.3853137657372103	0.0	0.8236907924795068	-0.3263891412271654	0.0	1.0018282406653887	-0.24836586271080124	0.0	0.9431818970143052	-0.35549560075988623	0.0	0.8553234682868589	-0.3502758461442506	0.0	0.8225240471219155	-0.3998924978372155	0.0	0.8331623286214087	-0.3940984761479092	0.0	0.8515196298635669	-0.33616618865514825	0.0	1.1079043829704374	-0.33614375306488997	0.0	1.1698129955270717	-0.3876420561007292	0.0	1.1285256354608124	-0.387268376638369	0.0	1.0726983918609705	-0.334371929333837	0.0	0.994834134167872	-0.34960007263090515	0.0	0.9591909824960758	-0.3917381880301035	0.0	1.1132535588678134	-0.31456261022814574	0.0	1.0634290209060093	-0.3210044474628028	0.0	1.0314843040553576	-0.37126146822043077	0.0
84	2.8178343949044584	0.9842296149568935	-0.2696604416627063	0.0	0.9757802929503101	-0.2737526755982693	0.0	0.9352764918374421	-0.39240721974906434	0.0	0.8394405566548919	-0.40681199353197356	0.0	0.8344357042005376	-0.4653480749699643	0.0	0.825312963194581	-0.4555186203098746	0.0	0.8232576928877203	-0.39563647618208736	0.0	0.9925408396553129	-0.272265312726288	0.0	0.9460655337014097	-0.3873826523804144	0.0	0.8578347124566805	-0.41528035422207893	0.0	0.8403836963068407	-0.47013040421924107	0.0	0.8494485568523908	-0.46112162588123234	0.0	0.8494443383342839	-0.4068311478023362	0.0	1.115924588552923	-0.3281377843049	0.0	1.1899449488381142	-0.3668396794060207	0.0	1.1463946088994763	-0.3739135740861679	0.0	1.0811806016310583	-0.3324179229835616	0.0	1.0091003287222298	-0.37150658656230856	0.0	0.9886413754344542	-0.42752735650221463	0.0	1.1159022797031095	-0.3071336674952237	0.0	1.0734859917989177	-0.3329043743811412	0.0	1.0514851185593788	-0.3861602773967238	0.0
85	2.851380042462845	0.9766474089783616	-0.30073644905279107	0.0	0.9689226906857884	-0.3038902397238226	0.0	0.9416270024709116	-0.4259076690285582	0.0	0.8525728215885936	-0.47399750143241615	0.0	0.8604436297481708	-0.5328693332806842	0.0	0.8500286082865847	-0.5256349180575437	0.0	0.8350844923721669	-0.4692514311500075	0.0	0.9839628760070553	-0.302456379671602	0.0	0.9486544291963525	-0.4216649532455314	0.0	0.8685465767402392	-0.480336670086366	0.0	0.8696592299282982	-0.5312013428528614	0.0	0.8730080274842716	-0.5249307317506657	0.0	0.8554751686146362	-0.47786982634942554	0.0	1.1174410211691461	-0.32378436081258694	0.0	1.2002738859133675	-0.34737385146997857	0.0	1.156704914360316	-0.3623006580955134	0.0	1.0849741139397915	-0.3336248127226356	0.0	1.0270214830637299	-0.39361771943961893	0.0	1.0252130684833696	-0.4582873370789931	0.0	1.1136181009691983	-0.30402656568984865	0.0	1.0813849656060726	-0.3449152260213238	0.0	1.076326330548168	-0.3985769214408109	0.0
86	2.8849256900212312	0.9709221466858424	-0.3370983584996822	0.0	0.9647156065322396	-0.33947372691641825	0.0	0.9483259416892895	-0.46283162133050076	0.0	0.8742524081974592	-0.5406539048660235	0.0	0.8929962838132821	-0.596269731535835	0.0	0.8820280805295008	-0.5921543887540182	0.0	0.8568328343128113	-0.5427251506423388	0.0	0.9765140022298983	-0.33766937831512095	0.0	0.9519811137591399	-0.4586139915284934	0.0	0.8854774766289929	-0.5426693292203612	0.0	0.9075103055294393	-0.5759234112848616	0.0	0.8994092486010505	-0.5828455280357007	0.0	0.8696238551478482	-0.5457412882863897	0.0	1.1131968027772539	-0.3249451619288984	0.0	1.2012134891643595	-0.33202034941697156	0.0	1.1597750782409597	-0.35450215596732654	0.0	1.084564192597991	-0.33946310565498633	0.0	1.0469700876769077	-0.41456437566095106	0.0	1.0654821468488525	-0.4807349879358826	0.0	1.1072797349788113	-0.3066830202455343	0.0	1.0875856950360128	-0.35692779813437586	0.0	1.102609768114429	-0.4073050170289482	0.0
87	2.918471337579618	0.9671657985849116	-0.377800595847749	0.0	0.9631635118623557	-0.37973172422268003	0.0	0.9557323773562065	-0.5036610631434676	0.0	0.9008476390445379	-0.6043689779608573	0.0	0.927534246319283	-0.654170622006107	0.0	0.9166656205886153	-0.6532936922069691	0.0	0.8846198556347792	-0.6126831608638197	0.0	0.9705173057852798	-0.3770581468197539	0.0	0.9568901802381092	-0.4984399277563361	0.0	0.9059497390538971	-0.6014348881903849	0.0	0.9505229054674019	-0.5996559639804788	0.0	0.924339213378787	-0.6341713083439174	0.0	0.889969527886745	-0.6090013859532598	0.0	1.1042118791222133	-0.3327823064518506	0.0	1.1937833196934908	-0.322994012793946	0.0	1.156427032120708	-0.35213822674351636	0.0	1.0807019302501555	-0.35078355151604046	0.0	1.0666575783756425	-0.4334386629598603	0.0	1.104700931988108	-0.49358176921643343	0.0	1.0973394017887106	-0.31616591657436616	0.0	1.0918325941708698	-0.36984140026979934	0.0	1.1259466632586588	-0.41234946895836566	0.0
88	2.952016985138004	0.9653519453252215	-0.4220656487156414	0.0	0.9639744510856824	-0.42382280823055474	0.0	0.9643082356187551	-0.5481071600199169	0.0	0.9281636783367976	-0.6638200050439527	0.0	0.9596114726179781	-0.7064035161997063	0.0	0.9494588891404829	-0.7084992960300689	0.0	0.9136920044850306	-0.676949404068752	0.0	0.9662125902559637	-0.41994950952900695	0.0	0.9636300019481232	-0.5411082970794968	0.0	0.9270362517618801	-0.6567084442167324	0.0	0.9945545282946143	-0.6025979240917241	0.0	0.944626684841932	-0.6797481792592341	0.0	0.912906192954423	-0.6672960992606856	0.0	1.0915699388225364	-0.34771256465502975	0.0	1.17938708964463	-0.3220241617589051	0.0	1.1475435362946536	-0.35645393495404754	0.0	1.074081869039245	-0.3679179830996537	0.0	1.083717956510623	-0.4500213774965789	0.0	1.1380654926236167	-0.49750084059071153	0.0	1.0840675159766713	-0.3329615319846549	0.0	1.0936414227245863	-0.3845432558777953	0.0	1.1426196072513155	-0.41475736064498425	0.0
89	2.9855626326963907	0.9651577170140363	-0.4688704941127306	0.0	0.966405003445233	-0.4704563964878738	0.0	0.9740505497521019	-0.594899043192735	0.0	0.9522566718729165	-0.718209176142002	0.0	0.985936358773825	-0.7532196807315131	0.0	0.9768983271215222	-0.7576687394267744	0.0	0.9394720490287116	-0.734118379653188	0.0	0.9636858559430407	-0.4654597960746707	0.0	0.9717320419585951	-0.5861293221581003	0.0	0.9460672007094276	-0.7084455775262236	0.0	1.0344738001821059	-0.5928130616282756	0.0	0.958959924425225	-0.7211909478876718	0.0	0.934357706478513	-0.7204975930929172	0.0	1.0764674739423465	-0.36948627133212497	0.0	1.1598402002633255	-0.33010780368262993	0.0	1.1341304990475853	-0.36814208430938744	0.0	1.0651558326290067	-0.3906633284436464	0.0	1.0962947212101213	-0.4646990050371604	0.0	1.1620005505335382	-0.49466685754608675	0.0	1.0680408091485285	-0.35685895422483477	0.0	1.092785660201319	-0.4015157077618839	0.0	1.1505755923804037	-0.416146120062427	0.0
90	3.019108280254777	0.9658797674939178	-0.5164725070628252	0.0	0.9692770282741187	-0.5176970807504991	0.0	0.9842557228464556	-0.6418462544205759	0.0	0.97031999763677	-0.7666404278492588	0.0	1.004980119944771	-0.794457297894249	0.0	0.9971424175049599	-0.8004355199908163	0.0	0.9587006260196658	-0.7831252542083317	0.0	0.962669343507044	-0.5121038677157336	0.0	0.9800749916920147	-0.632206924619738	0.0	0.96095728213918	-0.7558847513935447	0.0	1.0643950683533485	-0.5863463878120961	0.0	0.9678415441795736	-0.759944711664711	0.0	0.9509633793344986	-0.7680739642731038	0.0	1.0603637708260552	-0.39701586916943155	0.0	1.137264262763972	-0.34694110704615944	0.0	1.1177444146249895	-0.38691021219704863	0.0	1.0543258641707474	-0.418013413788153	0.0	1.1033701969587404	-0.478124196064423	0.0	1.1749461747102696	-0.48812290024887167	0.0	1.0504881152015833	-0.38680925189020415	0.0	1.0894060896347864	-0.4208155027179344	0.0	1.1496203840762582	-0.41830623884997037	0.0
